<svg width="20" height="20" viewBox="0 0 20 20" fill="none" xmlns="http://www.w3.org/2000/svg">
<path d="M7.78498 15.6516L6.17581 15.22L6.83165 12.7708C5.84995 12.4087 4.93758 11.8811 4.13415 11.2108L2.33998 13.0058L1.16081 11.8266L2.95581 10.0325C1.94254 8.81893 1.26172 7.3631 0.97998 5.80747L2.61998 5.5083C3.25248 9.00997 6.31581 11.6666 9.99998 11.6666C13.6833 11.6666 16.7475 9.00997 17.38 5.5083L19.02 5.80663C18.7386 7.36248 18.0581 8.81861 17.045 10.0325L18.8391 11.8266L17.66 13.0058L15.8658 11.2108C15.0624 11.8811 14.15 12.4087 13.1683 12.7708L13.8241 15.2208L12.215 15.6516L11.5583 13.2016C10.5269 13.3784 9.47302 13.3784 8.44165 13.2016L7.78498 15.6516Z" fill="#9CA3AF"/>
</svg>
